<svg xmlns="http://www.w3.org/2000/svg" viewBox="0 0 1005.52 1005.52"><defs><style>.cls-1{fill:#221815;}</style></defs><title>yonmoku</title><g id="レイヤー_3" data-name="レイヤー 3"><path class="cls-1" d="M70.09,31.15H992.87V665.53h0V992.87H31.15V31.15H70.09ZM987.71,987.71V36.31H36.31v951.4h951.4Z" transform="translate(-9.25 -9.25)"/><path class="cls-1" d="M576.55,1005.5h429v-987h-987v987h558ZM1014.78,9.25V1014.77H9.25V9.25Z" transform="translate(-9.25 -9.25)"/><polygon class="cls-1" points="21.9 60.83 21.9 64.65 19.7 61.72 18.61 60.25 20.81 57.33 21.83 55.95 21.9 55.86 21.9 59.68 21.62 60.06 21.47 60.25 21.76 60.64 21.9 60.83"/><polygon class="cls-1" points="21.9 74.72 21.9 78.53 18.68 74.23 15.45 69.93 13.48 67.31 10.26 63.01 9.28 61.7 9.28 58.82 12.5 54.52 15.72 50.22 17.69 47.59 20.92 43.29 21.9 41.98 21.9 45.8 18.68 50.1 15.45 54.4 12.23 58.7 11.06 60.25 14.29 64.55 17.51 68.86 20.74 73.16 21.9 74.72"/><path class="cls-1" d="M31.15,101.5V119l-3.22-4.3-3.23-4.3-2-2.63-3.23-4.3-1-1.31V81.36l3.22,4.3L25,90l3.22,4.3,2.95,3.94Zm-.38,13.19V101.5l-3.22-4.3-3.23-4.3-.9-1.2-3.23-4.31-.45-.6V100L23,104.28l.45.6,3.22,4.3,3.23,4.31Z" transform="translate(-9.25 -9.25)"/><polygon class="cls-1" points="21.9 130.59 21.9 133.14 20.95 133.14 17.73 128.84 14.5 124.54 11.27 120.24 9.28 117.58 9.28 113.75 12.5 118.06 15.72 122.36 17.69 124.98 20.92 129.28 21.9 130.59"/><polygon class="cls-1" points="12.03 131.31 13.4 133.14 12.5 134.34 9.28 138.64 9.28 134.82 10.12 133.7 10.54 133.14 9.7 132.02 9.28 131.46 9.28 127.64 12.03 131.31"/><polygon class="cls-1" points="21.9 133.14 21.9 135.69 18.95 139.62 15.72 143.92 12.5 148.22 9.28 152.52 9.28 148.71 12.5 144.41 15.72 140.1 17.06 138.33 20.29 134.03 20.95 133.14 21.9 133.14"/><polygon class="cls-1" points="21.9 159.74 21.9 163.56 19.7 160.63 18.61 159.17 20.81 156.24 21.9 154.78 21.9 158.59 21.62 158.98 21.47 159.17 21.76 159.56 21.9 159.74"/><polygon class="cls-1" points="21.9 176.17 21.9 177.45 18.95 173.51 15.72 169.21 12.5 164.91 9.28 160.61 9.28 157.73 12.5 153.43 15.72 149.13 18.95 144.82 21.9 140.89 21.9 144.71 20.74 146.26 17.51 150.56 14.29 154.87 11.06 159.17 12.23 160.72 15.45 165.02 18.68 169.32 21.9 173.63 21.9 176.17"/><polygon class="cls-1" points="21.9 182.65 21.9 203.48 18.95 199.54 15.72 195.24 12.5 190.94 9.28 186.64 9.28 165.81 12.5 170.12 15.72 174.41 18.95 178.72 21.9 182.65"/><polygon class="cls-1" points="21.9 213.89 21.9 255.53 18.95 251.6 15.72 247.3 12.5 243 9.28 238.7 9.28 197.05 12.23 200.99 15.45 205.29 18.68 209.59 21.9 213.89"/><path class="cls-1" d="M28.84,267.33l-3.8,3.8-2.38,2.38-2.76-2.74-1-1.06-.32-.32v-4.12l.32-.32,3.81-3.8,2.05,2.06,3.81,3.8Zm-6.18,2.95,2.94-2.95-2.94-2.95-2.95,2.95Z" transform="translate(-9.25 -9.25)"/><polygon class="cls-1" points="21.9 270.81 21.9 276.59 18.61 279.88 16.23 277.5 12.43 273.7 14.81 271.32 18.29 267.84 18.61 267.51 21.9 270.81"/><path class="cls-1" d="M28.84,298.57l-2.06,2.06-3.8,3.8-.32.32L19.9,302l-1.37-1.37v-4.12l.32-.32,3.81-3.81,2.05,2.06,3.81,3.81Zm-6.18,2.94,2.94-2.94-2.94-2.95-2.95,2.95Z" transform="translate(-9.25 -9.25)"/><polygon class="cls-1" points="21.08 304.94 18.61 307.41 17.79 306.58 16.14 304.94 16.96 304.11 18.61 302.46 19.43 303.29 21.08 304.94"/><polygon class="cls-1" points="21.9 317.1 21.9 320.77 18.54 316.57 15.19 312.37 11.83 308.17 10.13 306.05 9.28 304.99 9.28 301.32 12.63 305.51 15.99 309.71 17.69 311.84 21.05 316.04 21.9 317.1"/><polygon class="cls-1" points="21.9 332.72 21.9 336.38 18.54 332.19 15.19 327.99 13.48 325.86 11.83 323.79 10.13 321.66 9.28 320.6 9.28 316.93 12.63 321.13 15.99 325.33 17.69 327.46 21.05 331.66 21.9 332.72"/><polygon class="cls-1" points="21.9 349.24 21.9 370.07 18.68 365.77 15.45 361.47 13.48 358.84 10.26 354.54 9.28 353.23 9.28 332.41 12.5 336.71 15.72 341.01 17.69 343.63 20.92 347.93 21.9 349.24"/><polygon class="cls-1" points="21.9 380.48 21.9 401.3 18.68 397 15.45 392.7 12.23 388.39 9.28 384.46 9.28 363.64 12.5 367.94 14.22 370.23 17.44 374.53 17.69 374.86 20.92 379.16 21.9 380.48"/><polygon class="cls-1" points="21.9 411.71 21.9 432.54 18.95 428.61 15.72 424.3 12.5 420 9.28 415.7 9.28 394.88 12.23 398.81 15.45 403.11 18.68 407.41 21.9 411.71"/><path class="cls-1" d="M28.84,449.54l-2.06,2.06L25,453.34,23,455.4l-.32.32-.33-.32-3.8-3.8v-4.12l.32-.33,3.81-3.8,2.05,2.07,3.81,3.8Zm-6.18,2.94,2.94-2.94-2-2-1-1-2,2-1,1Z" transform="translate(-9.25 -9.25)"/><polygon class="cls-1" points="21.9 453.02 21.9 458.8 19.7 460.99 18.61 462.1 14.81 458.29 12.43 455.91 14.48 453.85 18.29 450.05 18.61 449.72 21.9 453.02"/><path class="cls-1" d="M28.84,480.77l-2.38,2.39-3.8,3.8-2.76-2.75-1.37-1.38v-4.12L21.28,476l1.38-1.38L25,477Zm-4.22,1,1-1-2.94-2.94-2,2-1,1,2,2,1,1Z" transform="translate(-9.25 -9.25)"/><polygon class="cls-1" points="21.08 487.14 20.26 487.97 18.61 489.62 17.79 488.79 16.14 487.14 16.96 486.32 18.61 484.67 21.08 487.14"/><polygon class="cls-1" points="21.9 498.89 21.9 506.63 18.1 510.43 16.24 512.3 13.4 515.13 10.65 512.38 9.6 511.33 9.28 511 9.28 494.52 12.03 491.77 13.4 490.39 17.2 494.2 21 498 21.9 498.89"/><polygon class="cls-1" points="21.08 518.38 18.61 520.85 16.96 519.2 16.14 518.38 18.61 515.91 21.08 518.38"/><path class="cls-1" d="M28.84,543.25l-3.8,3.8-2.38,2.38-2.76-2.75-1-1-.32-.32v-4.12l3.8-3.8.33-.33,3.8,3.81Zm-6.18,2.94,2.94-2.94-2.94-3-1,1-2,2,2.94,2.94Z" transform="translate(-9.25 -9.25)"/><polygon class="cls-1" points="21.9 546.73 21.9 552.5 18.61 555.8 16.23 553.42 12.43 549.62 14.81 547.24 18.61 543.43 21.9 546.73"/><path class="cls-1" d="M25,570.68l3.8,3.81-2.38,2.38L25,578.29l-.33.31-2.05,2.07-.33-.33-3.8-3.8v-4.12l2.75-2.75,1.38-1.38Zm-1.41,5.77,2-2-1-1-2-2-1,1-2,2h0l1,1,2,2Z" transform="translate(-9.25 -9.25)"/><polygon class="cls-1" points="21.9 572.99 21.9 593.81 18.95 597.74 15.72 602.04 12.5 606.34 9.28 610.64 9.28 589.82 12.5 585.52 15.72 581.22 18.95 576.92 21.9 572.99"/><polygon class="cls-1" points="21.9 604.23 21.9 625.05 18.68 629.35 15.45 633.65 13.48 636.27 10.26 640.57 9.28 641.88 9.28 621.06 12.5 616.76 15.72 612.46 17.69 609.83 20.92 605.53 21.9 604.23"/><polygon class="cls-1" points="21.9 635.46 21.9 656.28 18.68 660.59 15.45 664.89 12.23 669.19 9.28 673.12 9.28 659.24 9.28 652.29 12.23 648.36 15.45 644.06 18.68 639.76 21.9 635.46"/><polygon class="cls-1" points="21.9 669.14 21.9 672.81 18.54 677 15.99 680.19 12.63 684.39 12.26 684.85 9.28 688.59 9.28 684.92 11.83 681.73 15.19 677.53 18.54 673.33 21.9 669.14"/><polygon class="cls-1" points="21.9 684.76 21.9 688.42 18.54 692.62 15.99 695.81 12.63 700 9.28 704.2 9.28 700.54 12.63 696.34 15.99 692.14 19.36 687.95 21.05 685.82 21.9 684.76"/><rect class="cls-1" x="26.11" y="708.08" width="3.5" height="3.5" transform="translate(-503.4 218.77) rotate(-45.05)"/><path class="cls-1" d="M28.84,725.45l-3.8,3.8-.33.33-2.05,2.06-2.76-2.75-1-1.06-.32-.32v-4.12l2.75-2.74,1.38-1.38,3.8,3.8Zm-5.21,2,2-2-1-1-2-2-1,1-2,2,1,1,2,2Z" transform="translate(-9.25 -9.25)"/><polygon class="cls-1" points="21.9 728.93 21.9 734.71 18.61 738.01 16.23 735.62 12.43 731.82 14.81 729.44 18.61 725.64 21.9 728.93"/><path class="cls-1" d="M28.84,756.69l-2.38,2.38-3.8,3.8-.33-.32-3.8-3.8v-4.12l2.75-2.75,1.38-1.37L25,752.89Zm-6.18,2.94,2.94-2.94-1-1-2-2-1,1-2,2,1,1Z" transform="translate(-9.25 -9.25)"/><polygon class="cls-1" points="996.25 986.86 996.25 990.68 993.02 986.38 989.8 982.08 988.67 980.58 985.44 976.28 983.62 973.85 983.62 971.3 984.57 971.3 987.8 975.6 991.02 979.9 994.25 984.2 996.25 986.86"/><polygon class="cls-1" points="996.25 972.98 996.25 976.8 993.5 973.13 992.12 971.3 993.02 970.1 996.25 965.8 996.25 969.61 994.99 971.3 995.82 972.42 996.25 972.98"/><polygon class="cls-1" points="996.25 951.91 996.25 955.73 993.02 960.03 989.8 964.33 986.57 968.63 984.57 971.3 983.62 971.3 983.62 968.75 986.57 964.82 989.8 960.52 993.02 956.22 996.25 951.91"/><polygon class="cls-1" points="996.25 943.83 996.25 946.71 993.02 951.01 991.51 953.02 988.29 957.32 985.06 961.62 983.62 963.54 983.62 959.73 986.85 955.42 990.07 951.13 993.3 946.82 994.47 945.27 991.24 940.97 988.01 936.67 984.79 932.37 983.62 930.81 983.62 926.99 986.85 931.29 990.07 935.59 993.3 939.89 996.25 943.83"/><path class="cls-1" d="M1005.5,924v18.62l-3.22-4.3-3.23-4.3-3.23-4.3-3-3.93V905l3.23,4.3,3.22,4.3,3.23,4.3,3,3.94Zm-1.21,13.19V924l-3.23-4.3-.45-.6-3.23-4.3-3.22-4.31-.91-1.2v13.19l3.23,4.3,3.23,4.3.9,1.2,3.22,4.31Z" transform="translate(-9.25 -9.25)"/><polygon class="cls-1" points="996.25 887.95 996.25 891.77 993.02 887.47 989.8 883.17 986.57 878.87 983.62 874.93 983.62 872.38 984.57 872.38 986.57 875.05 989.8 879.35 993.02 883.65 996.25 887.95"/><polygon class="cls-1" points="996.25 874.07 996.25 877.89 995.35 876.68 992.12 872.38 993.02 871.18 996.25 866.88 996.25 870.7 995.4 871.82 994.99 872.38 995.82 873.5 996.25 874.07"/><polygon class="cls-1" points="996.25 853 996.25 856.82 993.02 861.12 991.24 863.49 988.02 867.79 984.79 872.09 984.57 872.38 983.62 872.38 983.62 869.83 986.57 865.9 989.8 861.6 993.02 857.3 996.25 853"/><polygon class="cls-1" points="996.25 844.92 996.25 847.79 993.3 851.73 990.07 856.03 986.85 860.33 983.62 864.63 983.62 860.81 986.85 856.51 990.07 852.21 990.85 851.17 994.08 846.87 994.47 846.36 993.3 844.8 990.07 840.5 986.85 836.2 983.62 831.9 983.62 828.08 986.57 832.01 989.8 836.31 993.02 840.61 996.25 844.92"/><polygon class="cls-1" points="996.25 832.77 996.25 839.71 993.02 835.41 989.8 831.11 987.83 828.48 984.6 824.18 983.62 822.87 983.62 802.05 986.57 805.98 989.8 810.28 993.02 814.58 996.25 818.88 996.25 832.77"/><polygon class="cls-1" points="996.25 766.83 996.25 808.47 993.02 804.17 989.8 799.87 986.57 795.57 983.62 791.63 983.62 749.99 986.57 753.92 989.8 758.23 993.02 762.53 996.25 766.83"/><path class="cls-1" d="M1005.5,754.63v4.12l-2.75,2.75-1.38,1.37-3.8-3.8-2.38-2.38,3.8-3.8,2.38-2.38,3.8,3.8Zm-4.13,5,3-2.94-3-3-3,3Z" transform="translate(-9.25 -9.25)"/><path class="cls-1" d="M1005.5,723.39v4.12l-3.8,3.8-.33.32-2.06-2-3.8-3.81-.32-.32,3.8-3.8,2.38-2.38,3.8,3.8Zm-4.13,5,3-2.95-3-2.94-2,2-1,1Z" transform="translate(-9.25 -9.25)"/><polygon class="cls-1" points="996.25 700.54 996.25 704.2 992.89 700 989.53 695.81 987.83 693.68 984.47 689.48 983.62 688.42 983.62 684.76 986.98 688.96 990.33 693.15 993.7 697.35 995.39 699.48 996.25 700.54"/><polygon class="cls-1" points="996.25 684.92 996.25 688.59 992.89 684.39 989.53 680.19 987.83 678.06 984.47 673.87 983.62 672.81 983.62 669.14 986.98 673.34 990.33 677.53 993.7 681.73 996.25 684.92"/><polygon class="cls-1" points="996.25 652.29 996.25 673.12 993.02 668.82 989.8 664.52 986.57 660.22 983.62 656.28 983.62 656.28 983.62 635.46 986.85 639.76 990.07 644.06 992.04 646.68 995.26 650.98 996.25 652.29"/><polygon class="cls-1" points="996.25 621.06 996.25 641.88 993.02 637.58 989.8 633.28 987.83 630.66 984.6 626.36 983.62 625.05 983.62 604.23 986.85 608.52 990.07 612.83 992.04 615.45 995.26 619.75 996.25 621.06"/><polygon class="cls-1" points="996.25 589.82 996.25 610.65 993.3 606.72 990.07 602.41 986.85 598.11 983.62 593.81 983.62 572.99 986.57 576.92 989.8 581.22 993.02 585.52 996.25 589.82"/><path class="cls-1" d="M1005.5,572.42v4.12l-2.75,2.75-1.38,1.38-2.06-2.07-.32-.31-3.48-3.49-.32-.32,2.06-2.06,3.8-3.8.32-.33.33.33Zm-1.18,2.06-2-2-1-1-2,2-1,1,3,2.94,2-2Z" transform="translate(-9.25 -9.25)"/><path class="cls-1" d="M1005.5,541.19v4.12l-.33.32-3.8,3.8L999,547.05l-3.48-3.49-.32-.31,3.8-3.8,2.06-2.07.32-.32,2.76,2.75Zm-4.12,5,2.94-2.94-2-2-1-1-2,2-1,1,3,2.94Z" transform="translate(-9.25 -9.25)"/><polygon class="cls-1" points="996.25 494.52 996.25 511 993.5 513.76 992.44 514.81 992.12 515.13 988.32 511.33 986.46 509.46 983.62 506.63 983.62 498.89 987.42 495.1 989.29 493.22 992.12 490.39 994.87 493.14 996.25 494.52"/><path class="cls-1" d="M1005.5,478.71v4.12l-2.75,2.75-1,1.05-.33.33-3.8-3.8-.32-.32-2.06-2.07L999,477l.32-.32,2.06-2.06,3.8,3.8Zm-4.13,5,3-3-1-1-2-2-1,1-2,2Z" transform="translate(-9.25 -9.25)"/><path class="cls-1" d="M1005.5,447.48v4.12l-2.75,2.75-1.38,1.37L999,453.34l-1.42-1.42-.32-.32-2.06-2.06,2.38-2.39,3.8-3.8.33.33Zm-3.15,4,2-2-1-1-2-2-1,1-2,2,1,1,2,2Z" transform="translate(-9.25 -9.25)"/><polygon class="cls-1" points="996.25 394.88 996.25 415.7 993.02 420 989.8 424.3 987.83 426.92 984.6 431.22 983.62 432.54 983.62 411.71 986.57 407.78 989.8 403.48 993.02 399.18 996.25 394.88"/><polygon class="cls-1" points="996.25 363.64 996.25 384.46 993.02 388.77 989.8 393.07 986.57 397.37 983.62 401.3 983.62 380.48 986.57 376.55 989.8 372.25 993.02 367.94 996.25 363.64"/><polygon class="cls-1" points="996.25 332.41 996.25 353.23 993.3 357.16 990.07 361.47 986.85 365.77 983.62 370.07 983.62 349.24 986.85 344.94 990.07 340.64 993.3 336.34 996.25 332.41"/><polygon class="cls-1" points="996.25 316.93 996.25 320.6 993.7 323.79 990.33 327.99 986.98 332.19 983.62 336.38 983.62 332.72 986.17 329.53 989.53 325.33 992.89 321.13 996.25 316.93"/><polygon class="cls-1" points="996.25 301.32 996.25 304.99 992.89 309.18 989.53 313.38 986.17 317.58 984.47 319.71 983.62 320.77 983.62 317.1 986.17 313.91 989.53 309.71 992.89 305.51 993.26 305.06 996.25 301.32"/><path class="cls-1" d="M1005.5,296.51v4.12l-2.75,2.74-1.38,1.38-3.8-3.8-.32-.32-2.06-2.06,3.8-3.8,2.38-2.39,2.76,2.75Zm-3.15,4,2-2-1-1-2-2-1,1-2,2h0l3,2.94Z" transform="translate(-9.25 -9.25)"/><path class="cls-1" d="M1005.5,265.27v4.12l-2.75,2.75-1.38,1.37L999,271.13l-3.8-3.8,2.38-2.38,3.8-3.8.33.32Zm-3.15,4,2-2-3-2.95-1,1-2,2,1,1,2,2Z" transform="translate(-9.25 -9.25)"/><polygon class="cls-1" points="996.25 197.05 996.25 238.7 993.3 242.63 990.07 246.93 986.85 251.23 983.62 255.53 983.62 213.89 986.57 209.95 989.8 205.65 993.02 201.35 996.25 197.05"/><polygon class="cls-1" points="996.25 179.7 996.25 186.64 993.02 190.94 989.8 195.24 987.83 197.86 984.6 202.16 983.62 203.48 983.62 182.65 986.57 178.72 989.8 174.41 993.02 170.12 996.25 165.81 996.25 179.7"/><polygon class="cls-1" points="996.25 157.73 996.25 160.61 993.02 164.91 989.8 169.21 987.83 171.84 984.6 176.14 983.62 177.45 983.62 173.63 984.79 172.07 988.01 167.77 991.24 163.47 994.47 159.17 993.3 157.62 990.07 153.31 986.85 149.01 983.62 144.71 983.62 140.89 986.57 144.82 989.8 149.13 993.02 153.43 996.25 157.73"/><polygon class="cls-1" points="996.25 148.71 996.25 152.52 993.3 148.59 990.07 144.29 986.85 139.99 983.62 135.69 983.62 133.14 984.57 133.14 986.57 135.8 989.8 140.1 993.02 144.41 996.25 148.71"/><polygon class="cls-1" points="996.25 134.82 996.25 138.64 995.35 137.44 992.12 133.14 993.02 131.94 996.25 127.64 996.25 131.46 994.99 133.14 996.25 134.82"/><polygon class="cls-1" points="996.25 113.75 996.25 117.57 994.25 120.24 991.02 124.54 987.8 128.84 984.57 133.14 983.62 133.14 983.62 130.59 986.57 126.66 989.8 122.36 993.02 118.06 996.25 113.75"/><path class="cls-1" d="M1005.5,100v2.21l-3.22,4.3-3.23,4.3-2,2.62-3.23,4.31-1,1.31V98.19l3.23-4.3,3.22-4.3,3.23-4.3,3-3.93Zm-1.21,0V86.79l-3.23,4.3-3.23,4.3-3.22,4.3-1.36,1.81v13.19l3.23-4.3,3.23-4.3.9-1.21,3.22-4.3Z" transform="translate(-9.25 -9.25)"/><polygon class="cls-1" points="996.25 58.82 996.25 61.7 993.02 66 989.8 70.3 987.83 72.92 984.6 77.22 983.62 78.53 983.62 74.72 986.85 70.41 990.07 66.11 993.3 61.81 994.47 60.25 991.24 55.95 988.01 51.65 984.79 47.35 984.01 46.32 983.62 45.8 983.62 41.98 986.85 46.28 990.07 50.58 992.04 53.21 995.26 57.51 996.25 58.82"/><polygon class="cls-1" points="996.25 49.79 996.25 53.61 993.02 49.31 989.8 45.01 987.83 42.39 984.6 38.09 983.62 36.77 983.62 34.23 984.57 34.23 987.8 38.53 991.02 42.83 994.25 47.13 996.25 49.79"/><polygon class="cls-1" points="996.25 35.91 996.25 39.73 993.5 36.06 992.12 34.23 994.87 30.56 996.25 28.73 996.25 32.54 995.4 33.67 994.99 34.23 995.82 35.35 996.25 35.91"/><polygon class="cls-1" points="996.25 14.85 996.25 18.66 993.02 22.96 989.8 27.27 988.47 29.04 985.24 33.34 984.57 34.23 983.62 34.23 983.62 31.68 986.85 27.38 990.07 23.08 993.3 18.77 996.25 14.85"/><polygon class="cls-1" points="993.1 273.7 990.72 276.08 986.92 279.88 984.72 277.69 983.62 276.59 983.62 270.81 985.82 268.62 986.92 267.51 989.3 269.9 990.72 271.32 993.1 273.7"/><polygon class="cls-1" points="993.1 455.91 990.72 458.29 986.92 462.1 983.62 458.8 983.62 453.02 986.92 449.72 989.3 452.11 993.1 455.91"/><polygon class="cls-1" points="993.1 549.62 990.72 552 986.92 555.8 983.62 552.5 983.62 546.73 985.82 544.53 986.92 543.43 988.98 545.49 992.78 549.29 993.1 549.62"/><polygon class="cls-1" points="993.1 731.82 991.04 733.88 990.72 734.2 987.24 737.69 986.92 738.01 983.62 734.71 983.62 728.93 986.92 725.64 989.3 728.02 993.1 731.82"/><polygon class="cls-1" points="990.68 9.28 986.38 12.5 982.08 15.73 979.46 17.69 975.16 20.92 973.85 21.9 971.3 21.9 971.3 20.95 975.6 17.73 979.9 14.5 984.2 11.27 986.86 9.28 990.68 9.28"/><polygon class="cls-1" points="990.68 996.25 986.86 996.25 982.56 993.02 978.26 989.8 976.49 988.47 972.18 985.24 971.3 984.57 971.3 983.62 973.85 983.62 978.15 986.85 982.45 990.07 986.75 993.3 990.68 996.25"/><polygon class="cls-1" points="986.92 302.46 989.39 304.94 987.74 306.58 986.92 307.41 984.44 304.94 986.92 302.46"/><rect class="cls-1" x="994.42" y="494.64" width="3.5" height="3.5" transform="translate(-68.31 841.06) rotate(-45.03)"/><polygon class="cls-1" points="989.39 518.38 988.57 519.2 986.92 520.85 986.09 520.03 984.44 518.38 986.92 515.91 987.74 516.73 989.39 518.38"/><polygon class="cls-1" points="989.39 700.59 988.57 701.41 986.92 703.06 986.09 702.24 984.44 700.59 985.26 699.76 986.92 698.11 987.74 698.94 989.39 700.59"/><polygon class="cls-1" points="985.82 58.79 986.92 60.25 983.69 64.55 983.62 64.65 983.62 60.83 983.9 60.45 984.05 60.25 983.76 59.87 983.62 59.68 983.62 55.86 985.82 58.79"/><polygon class="cls-1" points="985.82 157.71 986.92 159.17 984.72 162.1 983.62 163.56 983.62 159.74 984.05 159.17 983.62 158.59 983.62 154.78 985.82 157.71"/><polygon class="cls-1" points="986.85 846.26 986.92 846.36 984.72 849.28 983.62 850.75 983.62 846.93 984.05 846.36 983.76 845.97 983.62 845.78 983.62 841.96 986.85 846.26"/><polygon class="cls-1" points="986.85 945.17 986.92 945.27 984.72 948.19 983.69 949.57 983.62 949.66 983.62 945.85 984.05 945.27 983.62 944.69 983.62 940.87 986.85 945.17"/><polygon class="cls-1" points="976.8 9.28 975.6 10.18 971.3 13.4 970.1 12.51 965.8 9.28 969.61 9.28 970.74 10.12 971.3 10.54 972.42 9.7 972.98 9.28 976.8 9.28"/><polygon class="cls-1" points="976.8 996.25 972.98 996.25 972.14 995.62 971.3 994.99 970.17 995.82 969.61 996.25 965.8 996.25 969.46 993.5 971.3 992.12 974.96 994.87 976.8 996.25"/><polygon class="cls-1" points="971.3 983.62 971.3 984.57 967 987.8 962.69 991.02 960.92 992.36 956.62 995.58 955.73 996.25 951.91 996.25 956.22 993.02 960.52 989.8 964.82 986.57 968.75 983.62 971.3 983.62"/><polygon class="cls-1" points="971.3 20.95 971.3 21.9 968.75 21.9 964.45 18.68 960.15 15.45 957.52 13.48 953.22 10.26 951.91 9.28 955.73 9.28 960.03 12.5 964.33 15.73 968.64 18.95 971.3 20.95"/><polygon class="cls-1" points="963.54 21.9 959.73 21.9 955.42 18.68 951.13 15.45 950.09 14.67 945.79 11.45 945.27 11.06 940.96 14.29 936.66 17.51 932.36 20.74 931.33 21.52 930.81 21.9 926.99 21.9 931.29 18.68 935.59 15.45 938.22 13.48 942.52 10.26 943.83 9.28 946.71 9.28 951.01 12.51 955.31 15.73 959.61 18.96 962.23 20.92 963.54 21.9"/><polygon class="cls-1" points="963.54 983.62 959.61 986.57 955.31 989.8 951.01 993.02 946.71 996.25 943.83 996.25 939.53 993.02 935.23 989.8 930.92 986.57 926.99 983.62 930.81 983.62 935.11 986.85 939.41 990.07 940.45 990.85 944.75 994.08 945.26 994.46 949.57 991.24 953.87 988.01 958.17 984.79 959.73 983.62 963.54 983.62"/><polygon class="cls-1" points="949.66 21.9 945.85 21.9 945.46 21.62 945.27 21.47 944.69 21.9 940.87 21.9 945.17 18.68 945.27 18.61 945.36 18.68 949.66 21.9"/><polygon class="cls-1" points="949.66 983.62 946.73 985.82 945.26 986.92 942.34 984.72 940.96 983.69 940.87 983.62 944.69 983.62 945.26 984.05 945.65 983.76 945.85 983.62 949.66 983.62"/><path class="cls-1" d="M942.67,18.52l-4.3,3.23L934.06,25l-2.62,2-4.3,3.23-1.31,1H905l4.3-3.22,4.3-3.23,2.62-2,4.3-3.22,1.31-1Zm-6,1.67.61-.45H924.05L919.75,23l-.61.46-4.3,3.22-4.3,3.23-1.21.9h13.19l4.3-3.23,4.3-3.22,1.21-.9Z" transform="translate(-9.25 -9.25)"/><path class="cls-1" d="M942.67,1005.5H921.84l-4.3-3.23-4.3-3.23-4.3-3.22-3.93-3h20.82l4.3,3.22,4.31,3.23,4.3,3.22Zm-18.62-1.22h13.19l-4.3-3.22-.61-.46-4.3-3.22-4.3-3.23-1.21-.9H909.33l4.3,3.23,4.31,3.22,4.3,3.23Z" transform="translate(-9.25 -9.25)"/><polygon class="cls-1" points="891.77 9.28 887.47 12.5 883.17 15.73 880.54 17.69 876.24 20.92 874.93 21.9 872.38 21.9 872.38 20.95 876.68 17.73 880.98 14.5 882.76 13.17 887.06 9.94 887.95 9.28 891.77 9.28"/><polygon class="cls-1" points="891.77 996.25 887.95 996.25 883.65 993.02 880.17 990.41 875.87 987.18 872.38 984.57 872.38 983.62 874.93 983.62 878.87 986.57 883.17 989.8 887.47 993.02 891.77 996.25"/><polygon class="cls-1" points="877.88 9.28 874.22 12.03 872.38 13.4 868.72 10.65 866.88 9.28 870.7 9.28 871.82 10.12 872.38 10.54 873.51 9.7 874.07 9.28 877.88 9.28"/><polygon class="cls-1" points="877.88 996.25 874.07 996.25 872.38 994.99 870.7 996.25 866.88 996.25 870.55 993.5 872.38 992.12 873.58 993.02 877.88 996.25"/><polygon class="cls-1" points="872.38 983.62 872.38 984.57 868.08 987.8 863.78 991.02 862.01 992.36 857.7 995.58 856.82 996.25 853 996.25 855.91 994.06 860.22 990.83 861.23 990.07 865.53 986.85 869.83 983.62 872.38 983.62"/><polygon class="cls-1" points="872.38 20.95 872.38 21.9 869.83 21.9 865.53 18.68 861.23 15.45 858.61 13.48 857.59 12.72 853.29 9.5 853 9.28 856.82 9.28 861.12 12.5 861.49 12.78 865.79 16.01 867.19 17.06 871.49 20.29 872.38 20.95"/><polygon class="cls-1" points="864.63 21.9 860.81 21.9 856.51 18.68 852.21 15.45 847.91 12.23 846.36 11.06 844.8 12.23 840.5 15.45 836.19 18.68 831.89 21.9 829.35 21.9 828.08 21.9 832.38 18.68 836.68 15.45 840.98 12.23 844.91 9.28 847.79 9.28 850.71 11.46 855.01 14.69 856.03 15.45 860.33 18.68 864.63 21.9"/><polygon class="cls-1" points="864.63 983.62 860.33 986.85 856.03 990.07 853.41 992.04 852.39 992.8 848.09 996.03 847.79 996.25 844.91 996.25 840.98 993.3 836.68 990.07 832.38 986.85 828.08 983.62 831.89 983.62 836.19 986.85 839.44 989.27 841.53 990.85 845.83 994.08 846.36 994.46 850.66 991.24 854.96 988.01 856 987.23 860.3 984.01 860.81 983.62 864.63 983.62"/><polygon class="cls-1" points="850.75 21.9 846.93 21.9 846.54 21.62 846.36 21.47 845.97 21.76 845.78 21.9 841.96 21.9 846.26 18.68 846.36 18.61 850.66 21.83 850.75 21.9"/><polygon class="cls-1" points="850.75 983.62 847.82 985.82 846.36 986.92 843.43 984.72 841.96 983.62 845.78 983.62 846.03 983.8 846.36 984.05 846.93 983.62 850.75 983.62"/><polygon class="cls-1" points="839.71 9.28 835.77 12.23 831.48 15.45 828.48 17.69 824.18 20.92 822.87 21.9 802.05 21.9 805.98 18.96 810.28 15.73 814.58 12.51 818.88 9.28 824.26 9.28 829.3 9.28 832.76 9.28 839.71 9.28"/><polygon class="cls-1" points="839.71 996.25 818.88 996.25 814.58 993.02 810.28 989.8 807.66 987.83 803.36 984.6 802.05 983.62 822.87 983.62 826.8 986.57 831.11 989.8 835.41 993.02 839.71 996.25"/><polygon class="cls-1" points="808.47 9.28 804.54 12.23 800.24 15.45 797.25 17.69 795.94 18.68 791.63 21.9 749.99 21.9 753.92 18.96 758.22 15.73 762.52 12.51 766.82 9.28 808.47 9.28"/><polygon class="cls-1" points="808.47 996.25 766.82 996.25 762.52 993.02 758.22 989.8 755.6 987.83 751.3 984.6 749.99 983.62 791.63 983.62 795.57 986.57 799.87 989.8 804.17 993.02 808.47 996.25"/><path class="cls-1" d="M762.88,22.65l-2.06,2.06L757,28.51l-.32.32-2.06-2L750.83,23l-.32-.32,3.8-3.8.32-.32h4.12l3.8,3.8Zm-6.19,3,2.95-3-2.95-2.94-2.94,2.94Z" transform="translate(-9.25 -9.25)"/><path class="cls-1" d="M762.88,1001.37l-.33.33-3.8,3.8h-4.12l-2.74-2.75-1.06-1-.32-.33,2.38-2.38,3.8-3.81,2.38,2.39Zm-6.19,2.94,2.95-2.94-1-1-2-2-1,1-2,2Z" transform="translate(-9.25 -9.25)"/><polygon class="cls-1" points="738 18.61 735.81 20.81 734.71 21.9 728.93 21.9 726.74 19.7 725.64 18.61 728.02 16.23 731.82 12.43 734.21 14.81 738 18.61"/><polygon class="cls-1" points="734.71 983.62 738 986.92 735.62 989.3 731.82 993.1 729.44 990.71 725.64 986.92 728.93 983.62 734.71 983.62"/><path class="cls-1" d="M731.64,1001.37l-2.75,2.75-1,1-.33.33H723.4l-2.75-2.75-1.06-1-.32-.33,3.8-3.8,2.39-2.39,3.8,3.81.32.32Zm-6.18,2.94,2.94-2.94-2.94-3-3,3,1,1Z" transform="translate(-9.25 -9.25)"/><path class="cls-1" d="M731.64,22.65l-2.06,2.06-3.8,3.8-.32.32-2.06-2L719.59,23l-.32-.32L722,19.9l1.37-1.37h4.11l.33.32Zm-6.18,3,2.94-3-2.94-2.94-2.94,2.94Z" transform="translate(-9.25 -9.25)"/><polygon class="cls-1" points="704.2 9.28 700 12.63 695.81 16 693.68 17.69 689.48 21.05 688.42 21.9 684.76 21.9 688.96 18.54 693.15 15.19 695.28 13.48 699.48 10.13 700.54 9.28 704.2 9.28"/><polygon class="cls-1" points="704.2 996.25 700.54 996.25 696.34 992.89 692.14 989.53 687.95 986.17 684.76 983.62 688.42 983.62 691.61 986.17 695.81 989.53 700 992.89 704.2 996.25"/><polygon class="cls-1" points="703.06 18.61 702.24 19.44 700.59 21.08 699.76 20.26 698.11 18.61 700.59 16.14 703.06 18.61"/><polygon class="cls-1" points="703.06 986.92 700.59 989.39 698.94 987.74 698.11 986.92 700.59 984.44 703.06 986.92"/><polygon class="cls-1" points="688.59 9.28 684.64 12.44 680.45 15.79 678.06 17.69 673.86 21.05 672.81 21.9 669.14 21.9 673.34 18.54 677.53 15.19 679.66 13.48 683.86 10.13 684.92 9.28 688.59 9.28"/><polygon class="cls-1" points="688.59 996.25 684.92 996.25 681.73 993.7 677.53 990.33 673.34 986.98 669.14 983.62 672.81 983.62 673.36 984.06 677.56 987.43 681.76 990.78 685.96 994.14 688.59 996.25"/><polygon class="cls-1" points="673.12 9.28 668.82 12.51 664.52 15.73 661.89 17.69 657.59 20.92 656.28 21.9 635.46 21.9 639.76 18.68 644.06 15.45 646.68 13.48 650.98 10.26 652.29 9.28 673.12 9.28"/><polygon class="cls-1" points="673.12 996.25 652.29 996.25 648.36 993.3 644.06 990.07 639.76 986.85 635.46 983.62 656.28 983.62 660.58 986.85 664.88 990.07 669.18 993.3 673.12 996.25"/><polygon class="cls-1" points="641.88 9.28 638.41 11.88 634.11 15.1 633.23 15.76 628.93 18.99 625.05 21.9 604.23 21.9 608.52 18.68 612.83 15.45 615.44 13.48 617.13 12.23 621.06 9.28 641.88 9.28"/><polygon class="cls-1" points="641.88 996.25 621.06 996.25 616.76 993.02 612.46 989.8 608.15 986.57 604.22 983.62 625.05 983.62 628.52 986.22 632.82 989.45 633.7 990.11 638 993.33 641.88 996.25"/><polygon class="cls-1" points="610.64 9.28 606.72 12.23 602.41 15.45 598.11 18.68 593.81 21.9 572.99 21.9 577.29 18.68 581.59 15.45 585.89 12.23 589.82 9.28 610.64 9.28"/><polygon class="cls-1" points="610.64 996.25 589.82 996.25 585.52 993.02 581.22 989.8 576.92 986.57 572.99 983.62 593.81 983.62 597.74 986.57 602.04 989.8 606.34 993.02 610.64 996.25"/><path class="cls-1" d="M580.67,22.65l-2.06,2.06-.32.32-3.49,3.48-.31.32-2.07-2L568.62,23l-.32-.32.33-.32,3.8-3.8h4.11l3.81,3.8Zm-4.22,1,1-1-2-2-1-1-2,2-1,1,2,2,1,1Z" transform="translate(-9.25 -9.25)"/><path class="cls-1" d="M580.67,1001.37l-.32.33-2.43,2.42-1.37,1.38h-4.12l-.33-.33-3.8-3.8,2.38-2.38,3.81-3.81,2.38,2.39Zm-5.21,2,2-2-1-1-2-2-1,1-2,2,1,1,2,2Z" transform="translate(-9.25 -9.25)"/><polygon class="cls-1" points="555.8 18.61 552.5 21.9 546.73 21.9 544.53 19.7 543.43 18.61 545.49 16.55 549.29 12.75 549.62 12.43 552 14.81 555.8 18.61"/><polygon class="cls-1" points="555.8 986.92 553.42 989.3 549.62 993.1 547.23 990.71 545.82 989.3 545.49 988.98 543.43 986.92 546.73 983.62 552.5 983.62 555.8 986.92"/><path class="cls-1" d="M549.43,22.65,547.05,25l-3.8,3.8-2.07-2-.31-.33L537.39,23l-.33-.32,2.76-2.75,1.37-1.37h4.12l2.75,2.75Zm-6.18,3,3-3-2-2-1-1-2,2-1,1,2,2Z" transform="translate(-9.25 -9.25)"/><path class="cls-1" d="M549.43,1001.37l-2.74,2.75-1.06,1-.32.33h-4.12l-3.8-3.8-.33-.33,3.81-3.8,2.38-2.39,3.8,3.81.32.32Zm-6.18,2.94,3-2.94-1-1-2-2-1,1-2,2Z" transform="translate(-9.25 -9.25)"/><polygon class="cls-1" points="520.85 18.61 518.38 21.08 515.91 18.61 516.73 17.79 518.38 16.14 519.2 16.96 520.85 18.61"/><rect class="cls-1" x="525.88" y="994.41" width="3.5" height="3.5" transform="translate(-558.97 655.18) rotate(-44.98)"/><polygon class="cls-1" points="515.13 13.4 511.33 17.21 509.46 19.07 506.63 21.9 498.9 21.9 495.1 18.1 491.29 14.3 490.39 13.4 493.14 10.65 494.52 9.28 511 9.28 514.8 13.08 515.13 13.4"/><polygon class="cls-1" points="512.3 989.29 515.13 992.12 512.38 994.87 511.33 995.92 511 996.25 494.52 996.25 490.72 992.45 490.39 992.12 494.2 988.32 496.06 986.45 498.89 983.62 506.63 983.62 510.43 987.42 512.3 989.29"/><rect class="cls-1" x="494.65" y="26.11" width="3.5" height="3.5" transform="translate(116.5 349.98) rotate(-45.01)"/><polygon class="cls-1" points="489.62 986.92 488.79 987.74 487.14 989.39 486.32 988.56 484.67 986.92 485.49 986.09 487.14 984.44 489.62 986.92"/><path class="cls-1" d="M487,1001.37l-2.75,2.75-1,1-.32.33h-4.12l-2.75-2.75-1.38-1.38L477,999l3.8-3.81,3.8,3.81,2.06,2Zm-4.22,1,1-1-2.94-3-2,2-1,1,2.95,2.94Z" transform="translate(-9.25 -9.25)"/><path class="cls-1" d="M487,22.65l-3.81,3.8-.32.33-2.06,2L477,25l-.33-.32-2.06-2.06,3.81-3.8.32-.32h4.12l3.8,3.8Zm-6.19,3,2.94-3-1-1-2-2-1,1-2,2Z" transform="translate(-9.25 -9.25)"/><polygon class="cls-1" points="462.09 18.61 458.97 21.73 458.8 21.9 453.02 21.9 450.82 19.7 449.72 18.61 452.1 16.23 455.91 12.43 458.29 14.81 462.09 18.61"/><polygon class="cls-1" points="462.09 986.92 458.29 990.71 455.91 993.1 453.52 990.71 449.72 986.92 453.02 983.62 458.8 983.62 460.44 985.26 462.09 986.92"/><path class="cls-1" d="M455.73,1001.37l-2.75,2.75-1.38,1.38h-4.12l-2.75-2.75-1.37-1.38,2.06-2.06,3.8-3.8.32-.33,2.06,2.06,3.8,3.8Zm-4.22,1,1-1-2-2-1-1-2,2-1,1,2,2,1,1Z" transform="translate(-9.25 -9.25)"/><path class="cls-1" d="M455.73,22.65,453.34,25l-1.41,1.42-2.39,2.38-2.38-2.38-3.8-3.8.32-.32,3.8-3.8h4.12l.33.32Zm-3.24,0-1-1-2-2-1,1-2,2,1,1,2,2,1-1Z" transform="translate(-9.25 -9.25)"/><polygon class="cls-1" points="432.54 21.9 411.71 21.9 411.27 21.57 406.96 18.34 402.66 15.11 398.36 11.89 394.88 9.28 415.7 9.28 420 12.51 424.3 15.73 428.61 18.96 432.54 21.9"/><polygon class="cls-1" points="432.54 983.62 428.6 986.57 424.3 989.8 420 993.02 415.7 996.25 394.87 996.25 399.18 993.02 399.8 992.55 404.1 989.32 406.1 987.83 410.4 984.6 411.71 983.62 432.54 983.62"/><polygon class="cls-1" points="401.3 21.9 380.48 21.9 376.17 18.68 371.87 15.45 369.26 13.48 364.95 10.26 363.64 9.28 384.46 9.28 388.77 12.51 393.07 15.73 397.37 18.96 399.99 20.92 401.3 21.9"/><polygon class="cls-1" points="401.3 983.62 397 986.85 392.7 990.07 388.39 993.3 384.46 996.25 363.64 996.25 367.57 993.3 371.87 990.07 376.17 986.85 380.48 983.62 401.3 983.62"/><polygon class="cls-1" points="370.07 21.9 349.24 21.9 344.94 18.68 340.64 15.45 338.02 13.48 333.72 10.26 332.41 9.28 353.23 9.28 357.53 12.51 358.54 13.26 362.85 16.49 364.45 17.69 368.75 20.92 370.07 21.9"/><polygon class="cls-1" points="370.07 983.62 365.77 986.85 361.46 990.07 357.16 993.3 356.38 993.88 353.23 996.25 332.41 996.25 336.71 993.02 341.01 989.8 345.31 986.57 349.24 983.62 370.07 983.62"/><polygon class="cls-1" points="336.38 21.9 332.72 21.9 329.53 19.35 325.33 16 321.13 12.63 316.94 9.28 320.6 9.28 324.8 12.63 329 16 331.13 17.69 335.32 21.05 336.38 21.9"/><polygon class="cls-1" points="336.38 983.62 332.19 986.98 327.99 990.33 323.79 993.7 320.6 996.25 316.94 996.25 321.13 992.89 325.33 989.53 329.53 986.17 332.72 983.62 336.38 983.62"/><polygon class="cls-1" points="320.76 21.9 317.1 21.9 313.91 19.35 309.71 16 305.51 12.63 301.32 9.28 304.99 9.28 308.17 11.83 312.37 15.19 316.57 18.54 320.76 21.9"/><polygon class="cls-1" points="320.76 983.62 316.57 986.98 312.37 990.33 308.17 993.7 306.05 995.39 304.99 996.25 301.32 996.25 305.51 992.89 309.71 989.53 311.84 987.83 316.04 984.47 317.1 983.62 320.76 983.62"/><rect class="cls-1" x="312.44" y="26.11" width="3.5" height="3.5" transform="translate(63.11 221.12) rotate(-45.01)"/><polygon class="cls-1" points="307.41 986.92 306.58 987.74 304.94 989.39 304.11 988.56 302.46 986.92 303.29 986.09 304.94 984.44 305.76 985.26 307.41 986.92"/><path class="cls-1" d="M304.75,22.65l-3.8,3.8-.32.33-2.06,2-3.8-3.8-.32-.32-2.07-2.06,2.76-2.75,1.37-1.37h4.12l2.75,2.75Zm-3.24,0-2.94-2.94-2.94,2.94,2.94,3Z" transform="translate(-9.25 -9.25)"/><path class="cls-1" d="M304.75,1001.37l-2.75,2.75-1.37,1.38h-4.12l-.32-.33-2.43-2.42-1.38-1.38,3.81-3.8,2.38-2.39,2.06,2.06,3.8,3.8Zm-3.24,0-2.94-3-2.94,3,2.94,2.94Z" transform="translate(-9.25 -9.25)"/><polygon class="cls-1" points="279.88 18.61 276.59 21.9 270.81 21.9 267.52 18.61 269.9 16.23 271.32 14.81 273.7 12.43 276.08 14.81 279.88 18.61"/><polygon class="cls-1" points="279.88 986.92 277.5 989.3 274.02 992.78 273.7 993.1 271.64 991.04 271.32 990.71 267.84 987.24 267.52 986.92 270.81 983.62 276.59 983.62 279.88 986.92"/><path class="cls-1" d="M273.52,22.65,271.14,25l-3.81,3.8L265,26.45l-3.8-3.8.32-.32,3.81-3.8h4.11l.33.32Zm-6.19,3,2.95-3-1-1-2-2-1,1-2,2Z" transform="translate(-9.25 -9.25)"/><path class="cls-1" d="M273.52,1001.37l-2.75,2.75-1,1-.33.33h-4.11l-2.76-2.75-1.37-1.38,2.06-2.06,3.8-3.8.32-.33,3.8,3.81Zm-6.19,2.94,2.95-2.94-2.95-3-2.94,3Z" transform="translate(-9.25 -9.25)"/><polygon class="cls-1" points="255.53 21.9 213.89 21.9 209.59 18.68 205.29 15.45 200.99 12.23 197.05 9.28 238.7 9.28 243 12.51 247.3 15.73 251.6 18.95 255.53 21.9"/><polygon class="cls-1" points="255.53 983.62 251.6 986.57 247.3 989.8 243 993.02 238.7 996.25 197.05 996.25 200.99 993.3 205.29 990.07 209.59 986.85 213.89 983.62 255.53 983.62"/><polygon class="cls-1" points="203.47 21.9 182.65 21.9 178.35 18.68 174.05 15.45 171.43 13.48 167.12 10.26 165.81 9.28 186.64 9.28 190.94 12.51 195.24 15.73 199.54 18.95 203.47 21.9"/><polygon class="cls-1" points="203.47 983.62 199.54 986.57 195.24 989.8 190.94 993.02 186.64 996.25 165.81 996.25 169.75 993.3 174.05 990.07 178.35 986.85 182.65 983.62 203.47 983.62"/><polygon class="cls-1" points="177.45 21.9 173.63 21.9 169.33 18.68 165.03 15.45 163.99 14.67 159.69 11.45 159.17 11.06 157.62 12.23 153.31 15.45 149.01 18.68 144.71 21.9 140.89 21.9 145.19 18.68 149.5 15.45 153.43 12.51 157.73 9.28 160.61 9.28 164.54 12.23 168.84 15.45 173.15 18.68 177.45 21.9"/><polygon class="cls-1" points="177.44 983.62 173.51 986.57 169.21 989.8 164.91 993.02 160.61 996.25 157.73 996.25 153.8 993.3 149.5 990.07 145.19 986.85 140.89 983.62 144.71 983.62 146.26 984.79 150.57 988.01 154.87 991.24 159.17 994.46 160.73 993.3 165.03 990.07 169.33 986.85 173.63 983.62 177.44 983.62"/><polygon class="cls-1" points="163.56 21.9 159.74 21.9 159.36 21.62 159.17 21.47 158.59 21.9 154.78 21.9 157.71 19.7 159.17 18.61 162.1 20.81 163.56 21.9"/><polygon class="cls-1" points="163.56 983.62 159.26 986.85 159.17 986.92 156.24 984.72 154.78 983.62 158.59 983.62 158.98 983.9 159.17 984.05 159.56 983.76 159.74 983.62 163.56 983.62"/><polygon class="cls-1" points="152.52 9.28 148.22 12.51 143.92 15.73 141.3 17.69 137 20.92 135.69 21.9 133.14 21.9 133.14 20.95 136.76 18.23 141.07 15.01 145.37 11.78 148.71 9.28 152.52 9.28"/><polygon class="cls-1" points="152.52 996.25 148.71 996.25 144.41 993.02 140.1 989.8 135.8 986.57 133.14 984.57 133.14 983.62 135.69 983.62 139.62 986.57 143.92 989.8 148.22 993.02 152.52 996.25"/><polygon class="cls-1" points="138.64 9.28 134.97 12.03 133.14 13.4 131.94 12.5 129.47 10.65 127.64 9.28 131.46 9.28 132.58 10.12 133.14 10.54 134.26 9.7 134.82 9.28 138.64 9.28"/><polygon class="cls-1" points="138.64 996.25 134.82 996.25 133.14 994.99 132.02 995.82 131.46 996.25 127.64 996.25 128.84 995.35 133.14 992.12 134.34 993.02 138.64 996.25"/><polygon class="cls-1" points="133.14 983.62 133.14 984.57 130.42 986.61 126.12 989.84 121.82 993.06 117.57 996.25 113.75 996.25 118.06 993.02 122.36 989.8 122.94 989.36 127.24 986.14 130.59 983.62 133.14 983.62"/><polygon class="cls-1" points="133.14 20.95 133.14 21.9 130.59 21.9 126.29 18.68 121.99 15.45 119.37 13.48 115.07 10.26 113.75 9.28 117.58 9.28 120.24 11.27 124.54 14.5 128.84 17.73 133.14 20.95"/><path class="cls-1" d="M119,31.15H98.2L94.26,28.2l-.36-.27L89.6,24.7l-2.63-2-4.3-3.22-1.31-1h20.82l4.3,3.22L110.79,25l2.62,2,4.3,3.23Zm-17.51-.38h13.18l-4.3-3.23-4.3-3.22-1.2-.9-4.3-3.23-.61-.45H86.79L91.09,23l.61.46L96,26.64l4.3,3.23Z" transform="translate(-9.25 -9.25)"/><path class="cls-1" d="M119,992.87l-4.3,3.22-4.3,3.23-4.3,3.22-3.94,3H81.36l4.3-3.23L90,999l4.3-3.22,3.93-3H119Zm-6.14,1.73,1.81-1.35H101.5l-4.3,3.23-4.3,3.22-1.2.9-4.3,3.23-.61.45H100l4.3-3.22,4.3-3.23Z" transform="translate(-9.25 -9.25)"/><polygon class="cls-1" points="78.53 21.9 74.72 21.9 70.41 18.68 66.11 15.45 65.08 14.67 60.77 11.45 60.25 11.06 55.95 14.29 51.65 17.51 47.35 20.74 46.32 21.52 45.8 21.9 41.98 21.9 46.28 18.68 50.58 15.45 53.21 13.48 53.77 13.06 54.52 12.51 58.82 9.28 61.69 9.28 66 12.51 70.3 15.73 74.6 18.96 77.22 20.92 78.53 21.9"/><polygon class="cls-1" points="78.53 983.62 74.23 986.85 69.93 990.07 65.63 993.3 61.69 996.25 58.82 996.25 54.52 993.02 52.5 991.51 48.2 988.29 43.9 985.06 41.98 983.62 45.8 983.62 50.1 986.85 54.4 990.07 58.7 993.3 60.25 994.46 64.55 991.24 68.86 988.01 73.16 984.79 74.72 983.62 78.53 983.62"/><polygon class="cls-1" points="64.65 21.9 60.84 21.9 60.25 21.47 59.68 21.9 55.86 21.9 58.79 19.7 60.25 18.61 63.18 20.81 64.65 21.9"/><polygon class="cls-1" points="64.65 983.62 60.35 986.85 60.25 986.92 57.33 984.72 55.95 983.69 55.86 983.62 59.68 983.62 60.25 984.05 60.83 983.62 64.65 983.62"/><polygon class="cls-1" points="53.61 9.28 49.31 12.51 45.01 15.73 40.7 18.96 36.77 21.9 34.23 21.9 34.23 20.95 38.53 17.73 42.83 14.5 44.6 13.17 48.9 9.94 49.79 9.28 53.61 9.28"/><polygon class="cls-1" points="53.61 996.25 49.79 996.25 45.49 993.02 41.19 989.8 36.89 986.57 34.23 984.57 34.23 983.62 36.77 983.62 40.7 986.57 45.01 989.8 49.31 993.02 53.61 996.25"/><polygon class="cls-1" points="39.73 9.28 35.43 12.5 34.23 13.4 30.56 10.65 28.73 9.28 32.54 9.28 33.67 10.12 34.23 10.54 35.35 9.7 35.4 9.66 35.91 9.28 39.73 9.28"/><polygon class="cls-1" points="39.73 996.25 35.91 996.25 34.23 994.99 33.1 995.82 32.54 996.25 28.73 996.25 29.93 995.35 34.23 992.12 35.42 993.02 39.73 996.25"/><polygon class="cls-1" points="34.23 983.62 34.23 984.57 29.93 987.8 25.62 991.02 23.85 992.36 19.55 995.58 18.66 996.25 14.84 996.25 19.14 993.02 23.45 989.8 24.94 988.67 29.24 985.44 31.68 983.62 34.23 983.62"/><polygon class="cls-1" points="34.23 20.95 34.23 21.9 31.68 21.9 27.38 18.68 23.08 15.45 18.77 12.23 14.85 9.28 18.66 9.28 22.96 12.51 27.27 15.73 29.04 17.06 33.34 20.29 34.23 20.95"/><polygon class="cls-1" points="21.9 971.3 21.9 973.85 18.68 978.15 15.45 982.45 13.48 985.07 13.06 985.63 9.84 989.93 9.27 990.68 9.27 986.86 11.27 984.2 14.5 979.9 17.73 975.6 20.95 971.3 21.9 971.3"/><polygon class="cls-1" points="21.9 968.75 21.9 971.3 20.95 971.3 17.73 967 14.5 962.69 11.27 958.39 9.27 955.73 9.27 951.91 12.5 956.22 15.72 960.52 17.69 963.13 20.92 967.43 21.9 968.75"/><polygon class="cls-1" points="21.9 959.73 21.9 963.54 18.95 959.61 15.72 955.31 12.5 951.01 9.27 946.71 9.27 943.83 12.5 939.53 15.72 935.23 18.95 930.92 21.9 926.99 21.9 930.81 20.74 932.37 17.51 936.67 14.29 940.97 11.06 945.27 14.29 949.57 17.51 953.87 20.74 958.17 21.52 959.2 21.9 959.73"/><polygon class="cls-1" points="21.9 945.85 21.9 949.66 19.7 946.73 18.61 945.27 21.83 940.97 21.9 940.87 21.9 944.69 21.47 945.27 21.76 945.65 21.9 945.85"/><path class="cls-1" d="M31.15,922.52v3.31l-3.22,4.29-3.23,4.31-3.22,4.3-2.95,3.93V921.84l3.22-4.3,3.23-4.3,3.22-4.3L31.15,905Zm-.38,0V909.33l-3.22,4.3-3.23,4.3-.9,1.21-3.23,4.3-.45.6v13.19l3.23-4.3.45-.61,3.22-4.3,3.23-4.3Z" transform="translate(-9.25 -9.25)"/><polygon class="cls-1" points="21.9 872.38 21.9 874.93 19.17 878.58 15.95 882.88 12.72 887.18 12.5 887.47 9.27 891.77 9.27 887.95 11.27 885.29 14.5 880.98 17.73 876.68 20.95 872.38 21.9 872.38"/><polygon class="cls-1" points="21.9 869.83 21.9 872.38 20.95 872.38 18.95 869.72 15.72 865.42 12.5 861.12 9.27 856.82 9.27 853 12.23 856.93 15.45 861.23 18.68 865.53 21.9 869.83"/><polygon class="cls-1" points="21.9 860.81 21.9 864.63 18.95 860.7 15.72 856.4 12.5 852.1 9.27 847.79 9.27 844.92 12.5 840.61 15.59 836.5 17.69 833.69 20.92 829.39 21.9 828.08 21.9 830.62 21.9 831.89 21.12 832.93 17.9 837.23 14.67 841.53 14.29 842.05 11.06 846.36 12.23 847.91 15.45 852.21 18.68 856.51 21.9 860.81"/><polygon class="cls-1" points="21.9 846.93 21.9 850.75 19.7 847.82 18.61 846.36 20.81 843.43 21.9 841.96 21.9 845.78 21.47 846.36 21.9 846.93"/><polygon class="cls-1" points="21.9 802.05 21.9 822.87 18.95 826.81 15.72 831.11 12.5 835.41 9.27 839.71 9.27 818.88 12.5 814.58 15.72 810.28 17.69 807.66 20.92 803.36 21.9 802.05"/><polygon class="cls-1" points="21.9 749.99 21.9 791.63 18.95 795.57 15.72 799.87 12.5 804.17 9.27 808.47 9.28 766.82 12.23 762.89 15.45 758.59 18.68 754.29 21.9 749.99"/><polygon class="cls-1" points="21.9 34.23 21.9 36.77 18.95 40.71 15.72 45.01 12.5 49.31 9.28 53.61 9.28 49.79 12.5 45.49 15.72 41.19 17.06 39.41 20.29 35.11 20.95 34.23 21.9 34.23"/><polygon class="cls-1" points="21.9 31.68 21.9 34.23 20.95 34.23 17.73 29.93 14.5 25.62 11.27 21.32 9.28 18.66 9.28 14.85 12.5 19.14 15.72 23.45 17.69 26.07 20.92 30.37 21.9 31.68"/><polygon class="cls-1" points="12.03 32.39 13.4 34.23 12.5 35.42 9.28 39.73 9.28 35.91 10.12 34.79 10.54 34.23 9.7 33.1 9.28 32.54 9.28 28.73 12.03 32.39"/><polygon class="cls-1" points="12.03 870.55 13.4 872.38 12.5 873.59 9.27 877.89 9.27 874.07 10.54 872.38 9.27 870.7 9.27 866.88 12.03 870.55"/><polygon class="cls-1" points="12.5 970.1 13.4 971.3 10.18 975.6 9.27 976.8 9.27 972.98 9.91 972.13 10.54 971.3 9.7 970.17 9.27 969.61 9.27 965.8 12.5 970.1"/><path class="cls-1" d="M416.87,797.43V987.71H226.59V797.43Zm-5.15,185.13v-180h-180v180Z" transform="translate(-9.25 -9.25)"/><path class="cls-1" d="M226.59,797.43V987.71H36.31V797.43Zm-5.15,185.13v-180h-180v180Z" transform="translate(-9.25 -9.25)"/><path class="cls-1" d="M416.87,607.15V797.43H226.59V607.15Zm-5.15,185.13v-180h-180v180Z" transform="translate(-9.25 -9.25)"/><path class="cls-1" d="M226.59,607.15V797.43H36.31V607.15Zm-5.15,185.13v-180h-180v180Z" transform="translate(-9.25 -9.25)"/><path class="cls-1" d="M226.59,416.87V607.15H36.31V416.87ZM221.44,602V422h-180V602Z" transform="translate(-9.25 -9.25)"/><path class="cls-1" d="M987.71,797.43V987.71H797.43V797.43Zm-5.15,185.13v-180h-180v180Z" transform="translate(-9.25 -9.25)"/><path class="cls-1" d="M987.71,607.15V797.43H797.43V607.15Zm-5.15,185.13v-180h-180v180Z" transform="translate(-9.25 -9.25)"/><path class="cls-1" d="M987.71,416.87V607.15H797.43V416.87ZM982.56,602V422h-180V602Z" transform="translate(-9.25 -9.25)"/><path class="cls-1" d="M987.71,226.59V416.87H797.43V226.59Zm-5.15,185.12v-180h-180v180Z" transform="translate(-9.25 -9.25)"/><path class="cls-1" d="M987.71,36.31V226.59H797.43V36.31Zm-5.15,185.12v-180h-180v180Z" transform="translate(-9.25 -9.25)"/><path class="cls-1" d="M797.43,797.43V987.71H607.15V797.43Zm-5.14,185.13v-180h-180v180Z" transform="translate(-9.25 -9.25)"/><path class="cls-1" d="M797.43,607.15V797.43H607.15V607.15Zm-5.14,185.13v-180h-180v180Z" transform="translate(-9.25 -9.25)"/><path class="cls-1" d="M797.43,416.87V607.15H607.15V416.87ZM792.29,602V422h-180V602Z" transform="translate(-9.25 -9.25)"/><path class="cls-1" d="M797.43,226.59V416.87H607.15V226.59Zm-5.14,185.12v-180h-180v180Z" transform="translate(-9.25 -9.25)"/><path class="cls-1" d="M797.43,36.31V226.59H607.15V36.31Zm-5.14,185.12v-180h-180v180Z" transform="translate(-9.25 -9.25)"/><path class="cls-1" d="M607.15,797.43V987.71H416.87V797.43ZM602,982.56v-180H422v180Z" transform="translate(-9.25 -9.25)"/><path class="cls-1" d="M607.15,607.15V797.43H416.87V607.15ZM602,792.28v-180H422v180Z" transform="translate(-9.25 -9.25)"/><path class="cls-1" d="M607.15,416.87V607.15H416.87V416.87ZM602,602V422H422V602Z" transform="translate(-9.25 -9.25)"/><path class="cls-1" d="M607.15,226.59V416.87H416.87V226.59ZM602,411.71v-180H422v180Z" transform="translate(-9.25 -9.25)"/><path class="cls-1" d="M607.15,36.31V226.59H416.87V36.31ZM602,221.43v-180H422v180Z" transform="translate(-9.25 -9.25)"/><path class="cls-1" d="M416.87,416.87V607.15H226.59V416.87ZM411.72,602V422h-180V602Z" transform="translate(-9.25 -9.25)"/><path class="cls-1" d="M416.87,226.59V416.87H226.59V226.59Zm-5.15,185.12v-180h-180v180Z" transform="translate(-9.25 -9.25)"/><path class="cls-1" d="M416.87,36.31V226.59H226.59V36.31Zm-5.15,185.12v-180h-180v180Z" transform="translate(-9.25 -9.25)"/><path class="cls-1" d="M226.59,226.59V416.87H36.31V226.59Zm-5.15,185.12v-180h-180v180Z" transform="translate(-9.25 -9.25)"/><path class="cls-1" d="M226.59,36.31V226.59H36.31V36.31Zm-5.15,185.12v-180h-180v180Z" transform="translate(-9.25 -9.25)"/></g><g id="レイヤー_2" data-name="レイヤー 2"><polygon class="cls-1" points="54.97 851.66 41.33 865.31 41.33 838.02 54.97 851.66 54.97 851.66"/><polygon class="cls-1" points="54.97 914.99 41.33 928.63 41.33 901.35 54.97 914.99 54.97 914.99"/><polygon class="cls-1" points="80.66 851.66 48.99 883.32 80.66 914.99 39.65 956 39.65 948.58 73.24 914.99 41.57 883.32 73.24 851.66 39.65 818.08 39.65 810.65 80.66 851.66 80.66 851.66"/><polygon class="cls-1" points="104.18 964.2 76.89 964.2 90.53 950.55 104.18 964.2 104.18 964.2"/><polygon class="cls-1" points="203.07 901.35 203.07 928.63 189.43 914.99 203.07 901.35 203.07 901.35"/><polygon class="cls-1" points="194.87 965.87 187.45 965.87 153.86 932.29 122.2 963.95 90.53 932.29 56.95 965.87 49.53 965.87 90.53 924.87 122.2 956.53 153.86 924.87 194.87 965.87 194.87 965.87"/><polygon class="cls-1" points="167.5 964.2 140.22 964.2 153.86 950.55 167.5 964.2 167.5 964.2"/><polygon class="cls-1" points="135.97 932.66 122.2 946.43 108.43 932.66 122.2 918.89 135.97 932.66 135.97 932.66"/><polygon class="cls-1" points="86.64 883.32 72.87 897.09 59.09 883.32 72.87 869.55 86.64 883.32 86.64 883.32"/><polygon class="cls-1" points="185.3 883.32 171.53 897.09 157.76 883.32 171.53 869.55 185.3 883.32 185.3 883.32"/><polygon class="cls-1" points="122.2 859.38 122.2 883.32 98.25 883.32 122.2 859.38 122.2 859.38"/><polygon class="cls-1" points="146.14 883.32 122.2 907.27 122.2 883.32 146.14 883.32 146.14 883.32"/><polygon class="cls-1" points="203.07 864.83 203.07 865.31 189.43 851.66 203.07 838.02 203.07 864.83 203.07 864.83"/><polygon class="cls-1" points="204.75 948.58 204.75 956 163.74 914.99 195.4 883.32 163.74 851.66 204.75 810.65 204.75 818.08 171.16 851.66 202.82 883.32 171.16 914.99 204.75 948.58 204.75 948.58"/><polygon class="cls-1" points="194.87 800.77 153.86 841.78 122.2 810.12 90.53 841.78 49.53 800.77 56.95 800.77 90.53 834.36 122.2 802.7 153.86 834.36 173.68 814.54 173.73 814.5 187.45 800.77 194.87 800.77 194.87 800.77"/><polygon class="cls-1" points="167.5 802.45 153.86 816.1 140.22 802.45 167.5 802.45 167.5 802.45"/><polygon class="cls-1" points="135.97 833.99 122.2 847.76 108.43 833.99 122.2 820.22 135.97 833.99 135.97 833.99"/><polygon class="cls-1" points="104.18 802.45 90.53 816.1 76.89 802.45 104.18 802.45 104.18 802.45"/><polygon class="cls-1" points="816.1 851.66 802.45 865.31 802.45 838.02 816.1 851.66 816.1 851.66"/><polygon class="cls-1" points="965.87 948.58 965.87 956 924.87 914.99 956.53 883.32 924.87 851.66 965.87 810.65 965.87 818.08 932.29 851.66 963.95 883.32 932.29 914.99 965.87 948.58 965.87 948.58"/><polygon class="cls-1" points="965.87 187.45 965.87 194.87 924.87 153.86 956.53 122.2 924.87 90.53 965.87 49.53 965.87 56.95 932.29 90.53 963.95 122.2 932.29 153.86 965.87 187.45 965.87 187.45"/><polygon class="cls-1" points="964.19 901.35 964.19 928.63 950.55 914.99 964.19 901.35 964.19 901.35"/><polygon class="cls-1" points="964.19 864.83 964.19 865.31 950.55 851.66 964.19 838.02 964.19 864.83 964.19 864.83"/><polygon class="cls-1" points="964.19 140.22 964.19 167.51 950.55 153.86 964.19 140.22 964.19 140.22"/><polygon class="cls-1" points="964.19 103.71 964.19 104.18 950.55 90.53 964.19 76.89 964.19 103.71 964.19 103.71"/><polygon class="cls-1" points="956 39.65 938.56 57.08 938.52 57.13 934.76 60.88 934.72 60.93 924.85 70.8 924.84 70.8 914.99 80.66 883.32 48.99 851.66 80.66 810.65 39.65 818.08 39.65 851.66 73.24 883.32 41.57 914.99 73.24 948.58 39.65 956 39.65 956 39.65"/><polygon class="cls-1" points="956 800.77 914.99 841.78 883.32 810.12 851.66 841.78 810.65 800.77 818.08 800.77 851.66 834.36 883.32 802.7 914.99 834.36 948.58 800.77 956 800.77 956 800.77"/><polygon class="cls-1" points="956 204.75 948.58 204.75 914.99 171.16 883.32 202.82 851.66 171.16 818.08 204.75 810.65 204.75 851.66 163.74 883.32 195.41 914.99 163.74 956 204.75 956 204.75"/><polygon class="cls-1" points="956 965.87 948.58 965.87 914.99 932.29 883.32 963.95 851.66 932.29 818.08 965.87 810.65 965.87 851.66 924.87 883.32 956.53 914.99 924.87 956 965.87 956 965.87"/><polygon class="cls-1" points="942.63 118.39 946.43 122.2 932.66 135.97 918.89 122.2 932.66 108.43 942.63 118.39 942.63 118.39"/><polygon class="cls-1" points="946.43 883.32 932.66 897.1 918.89 883.32 932.66 869.55 946.43 883.32 946.43 883.32"/><polygon class="cls-1" points="928.64 802.45 914.99 816.1 901.35 802.45 928.64 802.45 928.64 802.45"/><polygon class="cls-1" points="928.64 41.33 914.99 54.97 901.35 41.33 928.64 41.33 928.64 41.33"/><polygon class="cls-1" points="928.64 203.07 901.35 203.07 914.99 189.43 928.64 203.07 928.64 203.07"/><polygon class="cls-1" points="928.64 964.2 901.35 964.2 914.99 950.55 928.64 964.2 928.64 964.2"/><polygon class="cls-1" points="907.27 883.32 883.32 907.27 883.32 883.32 907.27 883.32 907.27 883.32"/><polygon class="cls-1" points="907.27 122.2 883.32 146.14 883.32 122.2 907.27 122.2 907.27 122.2"/><polygon class="cls-1" points="893.29 830.19 897.09 833.99 883.32 847.76 869.55 833.99 883.32 820.22 893.29 830.19 893.29 830.19"/><polygon class="cls-1" points="897.09 72.87 883.32 86.64 869.55 72.87 883.32 59.09 897.09 72.87 897.09 72.87"/><polygon class="cls-1" points="894.73 169.17 897.09 171.53 883.32 185.3 869.55 171.53 883.32 157.76 894.73 169.17 894.73 169.17"/><polygon class="cls-1" points="897.09 932.66 883.32 946.43 869.55 932.66 883.32 918.89 897.09 932.66 897.09 932.66"/><polygon class="cls-1" points="883.32 859.38 883.32 883.32 859.38 883.32 883.32 859.38 883.32 859.38"/><polygon class="cls-1" points="883.32 98.25 883.32 122.2 859.38 122.2 883.32 98.25 883.32 98.25"/><polygon class="cls-1" points="865.31 802.45 851.66 816.1 838.02 802.45 865.31 802.45 865.31 802.45"/><polygon class="cls-1" points="865.31 41.33 851.66 54.97 838.02 41.33 865.31 41.33 865.31 41.33"/><polygon class="cls-1" points="865.31 203.07 838.02 203.07 851.66 189.43 865.31 203.07 865.31 203.07"/><polygon class="cls-1" points="865.31 964.2 838.02 964.2 851.66 950.55 865.31 964.2 865.31 964.2"/><polygon class="cls-1" points="847.76 122.2 833.99 135.97 820.22 122.2 833.99 108.43 847.76 122.2 847.76 122.2"/><polygon class="cls-1" points="847.76 883.32 833.99 897.09 820.22 883.32 833.99 869.55 847.76 883.32 847.76 883.32"/><polygon class="cls-1" points="841.78 90.53 810.12 122.2 841.78 153.86 800.77 194.87 800.77 187.45 834.36 153.86 802.7 122.2 834.36 90.53 800.77 56.95 800.77 49.53 841.78 90.53 841.78 90.53"/><polygon class="cls-1" points="841.78 851.66 810.12 883.32 841.78 914.99 800.77 956 800.77 948.58 834.36 914.99 802.7 883.32 834.36 851.66 800.77 818.08 800.77 810.65 841.78 851.66 841.78 851.66"/><polygon class="cls-1" points="816.1 90.53 802.45 104.18 802.45 76.89 816.1 90.53 816.1 90.53"/><polygon class="cls-1" points="816.1 153.86 802.45 167.51 802.45 140.22 816.1 153.86 816.1 153.86"/><polygon class="cls-1" points="816.1 914.99 802.45 928.63 802.45 901.35 816.1 914.99 816.1 914.99"/><polygon class="cls-1" points="585.31 568.01 585.31 575.43 576.1 566.21 576.06 566.19 554.16 544.28 554.15 544.28 544.3 534.43 573.91 504.83 573.91 504.82 575.97 502.76 544.3 471.1 585.31 430.09 585.31 437.51 551.73 471.1 583.39 502.76 551.73 534.43 585.31 568.01 585.31 568.01"/><polygon class="cls-1" points="583.63 546.22 583.63 548.07 569.99 534.43 583.63 520.78 583.63 546.22 583.63 546.22"/><polygon class="cls-1" points="583.63 484.27 583.63 484.74 569.99 471.1 583.63 457.46 583.63 484.27 583.63 484.27"/><polygon class="cls-1" points="575.43 420.21 534.43 461.22 524.57 451.37 524.57 451.36 502.76 429.56 471.1 461.22 430.09 420.21 437.51 420.21 471.1 453.8 502.76 422.13 534.42 453.8 568.01 420.21 575.43 420.21 575.43 420.21"/><polygon class="cls-1" points="575.43 585.31 568.01 585.31 534.42 551.73 502.76 583.39 471.1 551.73 468.76 554.07 468.61 554.22 437.51 585.31 430.09 585.31 471.1 544.31 502.76 575.97 534.42 544.31 575.43 585.31 575.43 585.31"/><polygon class="cls-1" points="565.86 502.76 552.1 516.53 538.33 502.76 552.1 488.99 565.86 502.76 565.86 502.76"/><polygon class="cls-1" points="548.07 421.89 534.43 435.54 534.42 435.54 520.78 421.89 548.07 421.89 548.07 421.89"/><polygon class="cls-1" points="548.07 583.63 520.78 583.63 534.43 569.99 548.07 583.63 548.07 583.63"/><polygon class="cls-1" points="526.71 502.76 526.68 502.78 502.76 526.71 502.76 502.76 526.71 502.76 526.71 502.76"/><polygon class="cls-1" points="514.16 451.06 516.53 453.43 502.76 467.2 488.99 453.43 502.76 439.66 514.16 451.06 514.16 451.06"/><polygon class="cls-1" points="516.53 552.1 502.76 565.86 488.99 552.1 502.76 538.33 516.53 552.1 516.53 552.1"/><polygon class="cls-1" points="502.76 478.81 502.76 502.76 478.81 502.76 502.76 478.81 502.76 478.81"/><polygon class="cls-1" points="484.74 421.89 471.1 435.54 457.45 421.89 484.74 421.89 484.74 421.89"/><polygon class="cls-1" points="484.74 583.63 457.45 583.63 471.1 569.99 484.74 583.63 484.74 583.63"/><polygon class="cls-1" points="467.2 502.76 453.43 516.53 439.66 502.76 453.43 488.99 467.2 502.76 467.2 502.76"/><polygon class="cls-1" points="461.03 470.91 461.22 471.1 429.56 502.76 461.22 534.42 431.62 564.02 431.62 564.03 420.21 575.43 420.21 568.01 453.8 534.42 422.14 502.76 453.8 471.1 420.21 437.51 420.21 430.09 461.03 470.91 461.03 470.91"/><polygon class="cls-1" points="431.74 530.62 435.54 534.43 421.89 548.07 421.89 520.78 431.74 530.62 431.74 530.62"/><polygon class="cls-1" points="435.54 471.1 421.89 484.74 421.89 457.46 435.54 471.1 435.54 471.1"/><polygon class="cls-1" points="204.75 187.45 204.75 194.87 163.74 153.86 195.41 122.2 163.74 90.53 204.75 49.53 204.75 56.95 171.16 90.53 202.82 122.2 171.16 153.86 204.75 187.45 204.75 187.45"/><polygon class="cls-1" points="203.07 140.22 203.07 167.51 189.43 153.86 203.07 140.22 203.07 140.22"/><polygon class="cls-1" points="203.07 103.71 203.07 104.18 189.43 90.53 203.07 76.89 203.07 103.71 203.07 103.71"/><polygon class="cls-1" points="194.87 39.65 153.86 80.66 122.2 48.99 90.53 80.66 49.53 39.65 56.95 39.65 90.53 73.24 122.2 41.57 153.86 73.24 187.45 39.65 194.87 39.65 194.87 39.65"/><polygon class="cls-1" points="194.87 204.75 187.45 204.75 153.86 171.16 122.2 202.82 90.53 171.16 56.95 204.75 49.53 204.75 90.53 163.74 122.2 195.41 153.86 163.74 194.87 204.75 194.87 204.75"/><polygon class="cls-1" points="181.5 118.39 185.3 122.2 171.53 135.97 157.76 122.2 171.53 108.43 181.5 118.39 181.5 118.39"/><polygon class="cls-1" points="167.51 41.33 153.86 54.97 140.22 41.33 167.51 41.33 167.51 41.33"/><polygon class="cls-1" points="167.51 203.07 140.22 203.07 153.86 189.43 167.51 203.07 167.51 203.07"/><polygon class="cls-1" points="146.14 122.2 122.2 146.14 122.2 122.2 146.14 122.2 146.14 122.2"/><polygon class="cls-1" points="135.97 72.87 122.2 86.64 108.43 72.87 122.2 59.09 135.97 72.87 135.97 72.87"/><polygon class="cls-1" points="135.97 171.53 122.2 185.3 108.43 171.53 122.2 157.76 135.97 171.53 135.97 171.53"/><polygon class="cls-1" points="122.2 98.25 122.2 122.2 98.25 122.2 122.2 98.25 122.2 98.25"/><polygon class="cls-1" points="104.18 41.33 90.53 54.97 76.89 41.33 104.18 41.33 104.18 41.33"/><polygon class="cls-1" points="104.18 203.07 76.89 203.07 90.53 189.43 104.18 203.07 104.18 203.07"/><polygon class="cls-1" points="86.64 122.2 72.87 135.97 59.09 122.2 72.87 108.43 86.64 122.2 86.64 122.2"/><polygon class="cls-1" points="80.66 90.53 48.99 122.2 80.66 153.86 39.65 194.87 39.65 187.45 73.24 153.86 41.57 122.2 73.24 90.53 39.65 56.95 39.65 49.53 80.66 90.53 80.66 90.53"/><polygon class="cls-1" points="54.97 90.53 41.33 104.18 41.33 76.89 54.97 90.53 54.97 90.53"/><polygon class="cls-1" points="54.97 153.86 41.33 167.51 41.33 140.22 54.97 153.86 54.97 153.86"/><rect class="cls-1" x="603.06" y="222.49" width="179.98" height="179.97"/><rect class="cls-1" x="793.34" y="412.77" width="179.97" height="179.97"/><rect class="cls-1" x="603.06" y="603.06" width="179.98" height="179.97"/><rect class="cls-1" x="412.77" y="793.34" width="179.97" height="179.97"/><rect class="cls-1" x="222.49" y="603.06" width="179.97" height="179.97"/><rect class="cls-1" x="32.21" y="412.77" width="179.97" height="179.97"/><rect class="cls-1" x="222.49" y="222.49" width="179.97" height="179.97"/><rect class="cls-1" x="412.77" y="32.21" width="179.97" height="179.97"/><path class="cls-1" d="M131.45,868.63l-1.13,1.13-3.81,3.81-3.8,3.8-3.8,3.8-3.8,3.8-3.45,3.46-.35.34-3.45,3.46-.35.34,23.94,23.95,1.14-1.14,3.8-3.8,3.8-3.8L144,904l3.8-3.8,3.46-3.46,3.8-3.8.34-.35ZM160,892.57l-1.88,1.89-3.06,3-.75.75-3,3-.75.75-3.8,3.8-3.81,3.8-3.8,3.81-3.05,3-.75.75-3.05,3.05-.75.75-1.89-1.89-3.8-3.8-3.8-3.8-3.8-3.8-3.8-3.8-3.81-3.8-3.8-3.81-3.8-3.8,1.89-1.88,3-3.05,3.8-3.81,3.81-3.8.74-.75,3.8-3.8,3.8-3.8,3.81-3.8,3.8-3.8,1.88,1.88,3.81,3.8,3.8,3.81,3.8,3.8,3.8,3.8,3.8,3.8,3.81,3.8Z" transform="translate(-9.25 -9.25)"/><path class="cls-1" d="M921.08,892.57l-1.89,1.89-3.8,3.8-3.81,3.8-3.8,3.8-3.8,3.8-3.8,3.81-3.8,3.8-3.81,3.8-1.88-1.89-1.92-1.91-1.13-1.14-.75-.75-3-3-.75-.75L880,908.53l-.75-.75-3.81-3.8-3.8-3.8-3.8-3.8-3.8-3.81,1.88-1.88,3.81-3.81,3.8-3.8,3.8-3.8,3.8-3.8,3.8-3.8,3.8-3.8,3.8-3.8,3.81,3.8,1.88,1.88,3.8,3.81,3.81,3.8,3,3,3.8,3.8,3.8,3.8,3.8,3.8Zm-8.36,3.8,3.8-3.8-23.95-23.94-1.13,1.13-3.8,3.81-3.8,3.8-3.8,3.8-3.8,3.8-3.8,3.8-3.81,3.8,23.94,23.95,1.14-1.14,3.8-3.8,3.81-3.8,3.8-3.8,3.8-3.8Z" transform="translate(-9.25 -9.25)"/><path class="cls-1" d="M892.57,103l1.89,1.89,3.8,3.8,3.8,3.8,3.81,3.8,3.8,3.8,3.8,3.81,3.8,3.8,3.81,3.8-1.89,1.88-1.92,1.92-1.14,1.13-.74.76-3.06,3-.74.76L908.53,144l-.74.75-3.81,3.8-3.8,3.8-3,3.06-.75.74-3,3.06-.76.74-1.88-1.88-3.8-3.8-3.8-3.81-3.8-3.8-3.81-3.8-3.8-3.8-3.8-3.8-3.8-3.8,3.8-3.8,1.89-1.89,3.8-3.8,3.8-3.8,3-3.06,3.81-3.8,3.8-3.8,3.8-3.8Zm20.15,32.3,3.8-3.8L892.57,107.5l-3.8,3.8-3.8,3.8-3.8,3.8-3.8,3.81-3.8,3.8-.79.79-3,3-1.14,1.14,23.94,23.94,1.14-1.13,3.8-3.81,3.81-3.8,3.8-3.8,3.8-3.8Z" transform="translate(-9.25 -9.25)"/><path class="cls-1" d="M160,131.45l-1.88,1.88-3.81,3.81-3.8,3.8-3.8,3.8-3.8,3.8-3.81,3.8-3.8,3.8-3.8,3.8-1.89-1.88-3-3.05-.75-.75-3.05-3-.75-.76-3-3-.75-.76-3.8-3.8-3.81-3.8-3-3.05-.76-.75-3-3.06-.75-.74,1.89-1.89,3.8-3.8,3.8-3.8,3.8-3.8,3.8-3.8,3.06-3.06,3.8-3.8.75-.75,3.8-3.8,1.88,1.89,3.06,3,3.8,3.8,3.8,3.8.75.75,3.8,3.8,3.8,3.81,3.81,3.8Zm-4.56,0L131.45,107.5l-3.8,3.8-3.8,3.8L120,118.9l-3.8,3.81-3.8,3.8-4.93,4.94,23.94,23.94Z" transform="translate(-9.25 -9.25)"/><path class="cls-1" d="M512,488.07l-1.13,1.13-3.8,3.8-3.8,3.8-3.8,3.8-3.81,3.81-3.8,3.8-3.8,3.8L512,536l1.12-1.12,3.8-3.8,3.8-3.8,3.8-3.8,3.8-3.81,3.48-3.47,3.8-3.8.32-.33,0,0ZM540.51,512l-1.88,1.89-1.92,1.91L535.57,517l-.74.75-3.06,3-.75.75-3,3-.75.75-3.05,3.05-.75.75-3,3.06-.75.74-3.81,3.8-3.8,3.81-1.88-1.89-1.92-1.92-1.13-1.13-.75-.75-3.06-3.05-.75-.76-3-3-.75-.76-3.05-3-.75-.76-3.05-3-.75-.76-3.05-3.05-.75-.75-3.81-3.8h0l1.88-1.88,3.8-3.8,3.81-3.8,3.8-3.8,3.8-3.8,3.8-3.8,3.8-3.8,3.8-3.8,1.79,1.79,3.81,3.8,3.8,3.8,3.8,3.8,3.8,3.8,3.81,3.8,3.8,3.8,3.8,3.81Z" transform="translate(-9.25 -9.25)"/></g></svg>